HIERARCHY
ROOT hip
{
	OFFSET 0.000000 0.000000 0.000000 
	CHANNELS 6 Xposition Yposition Zposition Xrotation Zrotation Yrotation
	JOINT abdomen
	{
		OFFSET 0.000000 3.402643 0.000000 
		CHANNELS 3 Xrotation Zrotation Yrotation
		JOINT chest
		{
			OFFSET 0.000000 8.438565 -0.680529 
			CHANNELS 3 Xrotation Zrotation Yrotation
			JOINT neck
			{
				OFFSET 0.000000 10.207942 -0.272212 
				CHANNELS 3 Xrotation Zrotation Yrotation
				JOINT head
				{
					OFFSET 0.000000 3.130431 0.000000 
					CHANNELS 3 Xrotation Zrotation Yrotation
					End Site
					{
						OFFSET 0.000000 3.130435 0.000000 
					}
				}
			}
			JOINT lCollar
			{
				OFFSET 3.470700 6.669187 -0.816635 
				CHANNELS 3 Yrotation Zrotation Xrotation
				JOINT lShldr
				{
					OFFSET 3.198488 0.000000 0.000000 
					CHANNELS 3 Zrotation Yrotation Xrotation
					JOINT lForeArm
					{
						OFFSET 10.139888 0.000000 0.000000 
						CHANNELS 3 Yrotation Zrotation Xrotation
						JOINT lHand
						{
							OFFSET 8.370511 0.000000 0.000000 
							CHANNELS 3 Zrotation Yrotation Xrotation
							End Site
							{
								OFFSET 4.083176 0.000000 0.000000 
							}
						}
					}
				}
			}
			JOINT rCollar
			{
				OFFSET -3.470700 6.669187 -0.816635 
				CHANNELS 3 Yrotation Zrotation Xrotation
				JOINT rShldr
				{
					OFFSET -3.198488 0.000000 0.000000 
					CHANNELS 3 Zrotation Yrotation Xrotation
					JOINT rForeArm
					{
						OFFSET -10.139888 0.000000 0.000000 
						CHANNELS 3 Yrotation Zrotation Xrotation
						JOINT rHand
						{
							OFFSET -8.370511 0.000000 0.000000 
							CHANNELS 3 Zrotation Yrotation Xrotation
							End Site
							{
								OFFSET -4.083176 0.000000 0.000000 
							}
						}
					}
				}
			}
		}
	}
	JOINT lThigh
	{
		OFFSET 5.308129 -1.633274 1.361059 
		CHANNELS 3 Xrotation Zrotation Yrotation
		JOINT lShin
		{
			OFFSET -2.041588 -20.007561 0.000000 
			CHANNELS 3 Xrotation Zrotation Yrotation
			JOINT lFoot
			{
				OFFSET 0.000000 -19.190928 -1.224953 
				CHANNELS 3 Xrotation Yrotation Zrotation
				End Site
				{
					OFFSET 0.000000 -2.449906 4.627600 
				}
			}
		}
	}
	JOINT rThigh
	{
		OFFSET -5.308129 -1.633274 1.361059 
		CHANNELS 3 Xrotation Zrotation Yrotation
		JOINT rShin
		{
			OFFSET 2.041588 -20.007561 0.000000 
			CHANNELS 3 Xrotation Zrotation Yrotation
			JOINT rFoot
			{
				OFFSET 0.000000 -19.190928 -1.224953 
				CHANNELS 3 Xrotation Yrotation Zrotation
				End Site
				{
					OFFSET 0.000000 -2.449906 4.627600 
				}
			}
		}
	}
}
MOTION
Frames: 8
Frame Time: 0.016667
-0.808251 44.850857 0.464185 0.303197 -3.164020 -2.839510 -19.377399 2.851870 1.098340 20.419901 0.742185 0.974792 1.903641 -6.173904 3.492674 8.478960 4.294110 0.775921 2.000000 -2.000000 0.000000 -48.985001 4.728180 -149.218994 21.943600 -0.341659 0.051151 0.054466 0.045546 -116.755997 -2.000000 2.000000 0.000000 54.067600 -2.893760 164.759003 -11.767700 0.348690 0.027885 -0.072146 -0.073357 -109.714996 -6.072924 4.290072 2.417884 28.568237 3.449720 1.956760 -18.522448 4.256869 1.938151 -5.797822 -0.935572 4.759803 28.538998 -3.528407 -1.956154 -17.097464 -13.127034 -4.696081 
-0.814628 44.850723 0.468128 0.391278 -3.310470 -2.913750 -19.376600 2.893010 1.208060 20.459000 0.595702 1.034140 2.050885 -6.572195 3.445276 8.517290 4.186710 0.682545 2.000000 -2.000000 0.000000 -50.429001 4.711570 -157.031006 22.627199 -0.341041 0.052660 0.052677 0.050173 -118.698997 -2.000000 2.000000 0.000000 55.148499 -2.473820 160.462997 -12.129000 0.348512 0.028729 -0.070058 -0.059377 -111.394997 -6.192903 4.479262 2.491813 28.665751 3.460804 1.968363 -18.569668 4.183738 1.909299 -5.860172 -0.756380 4.815950 28.442406 -3.509059 -1.942627 -16.979931 -13.208797 -4.725878 
-0.837185 44.849182 0.462781 0.381668 -3.730390 -2.964870 -19.528601 3.039960 0.932318 20.224600 0.712879 0.923603 1.128282 -6.317017 3.221998 8.408690 4.070700 0.851291 2.000000 -2.000000 0.000000 -53.484402 5.709890 -168.919006 24.746401 -0.339010 0.057290 0.048458 0.025068 -124.383003 -2.000000 2.000000 0.000000 56.582001 -2.234130 158.080994 -13.906400 0.347556 0.032860 -0.059779 -0.031443 -122.039001 -6.388428 4.929533 2.315366 29.088354 3.470022 1.986214 -18.805662 4.244214 1.955460 -5.667312 -0.236726 4.853633 28.027130 -3.513270 -1.907702 -16.423088 -13.698294 -4.733636 
-0.826353 44.844814 0.434298 0.440426 -3.808480 -2.871640 -19.569000 2.999500 0.768717 20.009701 0.712858 0.833040 0.821799 -5.678786 2.849898 8.223180 4.140250 0.833357 2.000000 -2.000000 0.000000 122.704002 173.906998 -0.414898 28.613600 -0.334868 0.065533 0.044877 0.008855 -133.757996 -2.000000 2.000000 0.000000 59.176399 -1.992390 154.712006 -17.226801 0.345431 0.040492 -0.054448 -0.003992 -135.496002 -6.524664 5.083392 2.555405 29.178432 3.458997 1.992399 -18.854126 3.833631 1.807817 -5.638187 -0.223230 4.601483 27.797861 -3.535144 -1.905154 -16.641619 -13.334226 -4.683617 
-0.849579 44.861000 0.400546 0.675098 -3.515380 -2.786060 -19.587799 3.008240 0.847593 19.882700 0.996025 0.867192 1.068332 -5.279935 2.623901 8.263370 4.276300 0.729091 2.000000 -2.000000 0.000000 -61.776299 5.856850 170.710007 33.652699 -0.328653 0.075821 0.046093 -0.021593 -144.656006 -2.000000 2.000000 0.000000 62.366199 -1.946240 151.382004 -21.318600 0.342209 0.049706 -0.057304 0.030389 -147.839996 -6.625520 4.663267 1.977516 28.796061 3.441772 1.972236 -18.811838 4.771486 2.129241 -5.768535 -0.402129 5.157925 27.610441 -3.528537 -1.876018 -17.081141 -13.454883 -4.815044 
-0.813344 44.892872 0.370649 1.027540 -3.710340 -2.547460 -19.684601 3.006640 0.926555 19.716700 0.790931 0.906375 1.028259 -4.944286 2.127592 8.135700 4.228550 0.569640 2.000000 -2.000000 0.000000 -66.509499 5.481870 164.850998 38.633202 -0.321646 0.085414 0.062218 -0.049471 -154.880997 -2.000000 2.000000 0.000000 65.831497 -1.738460 150.084000 -25.127199 0.338627 0.058056 -0.065123 0.057667 -157.985992 -7.069125 4.766341 1.423046 28.768835 3.424507 1.977980 -18.930279 4.870646 2.148754 -5.801553 -0.104820 5.637459 27.046387 -3.536390 -1.833373 -17.099463 -13.990936 -4.998544 
-0.794993 44.912540 0.370978 1.262070 -3.465960 -2.391220 -19.730301 2.776270 0.923829 19.716700 0.673756 0.869030 1.237255 -4.495216 1.915731 8.097110 4.306770 0.484415 2.000000 -2.000000 0.000000 -70.696701 5.132670 161.610001 42.490700 -0.315662 0.092405 0.069619 -0.068203 -162.078003 -2.000000 2.000000 0.000000 70.381203 -1.434020 149.255005 -28.603800 0.334879 0.065456 -0.071546 0.072162 -163.649994 -7.299051 4.503678 1.517748 28.516277 3.392652 1.963409 -18.768082 4.656705 2.104300 -5.885948 -0.260727 6.168207 26.868793 -3.539248 -1.835505 -16.911074 -14.732426 -5.169985 
-0.764149 44.912926 0.338724 1.487680 -3.817080 -2.355350 -19.956800 2.884500 0.906265 19.326099 0.605329 0.875670 1.963131 -3.674179 1.909695 8.139930 4.774010 0.364678 2.000000 -2.000000 0.000000 -74.446602 4.781080 161.600998 44.326599 -0.312652 0.095587 0.072606 -0.074231 -164.479996 -2.000000 2.000000 0.000000 73.986099 -0.987240 150.436996 -30.136999 0.333084 0.068644 -0.074352 0.077483 -165.798996 -7.678517 4.942386 1.635834 28.776823 3.361215 1.992138 -18.906513 4.494017 2.073006 -5.989816 0.220150 6.799285 26.517170 -3.512206 -1.822658 -17.100430 -15.186842 -5.382887 
